<svg xmlns="http://www.w3.org/2000/svg" width="725.73" height="249.907"><defs><style>@font-face{font-family:Comic Shanns;src:url(/fonts/ComicShanns.woff)}</style></defs><path fill="#fff" d="M0 0h725.73v249.907H0z"/><g stroke-linecap="round"><path fill="#ffec99" stroke-width="0" d="M41.75 23.624c17.64-4.19 33.13.99 63.5 0 22.24-3.33 32.85 9.47 31.75 31.75-5.2 46.71-.22 95.35 0 152.78-2.36 20.34-11.64 29.77-31.75 31.75-26.27 2.73-42.62-1.23-63.5 0-24.17 2.71-30.12-11.96-31.75-31.75 1.84-35.98 2-75.44 0-152.78-3.31-20.44 10.35-28.89 31.75-31.75"/><path fill="none" stroke="#4dabf7" stroke-width="2" d="M41.75 23.624c25.29 1.45 48.48-.35 63.5 0m-63.5 0c16.42-.34 33.04-.45 63.5 0m0 0c21.42.18 32.05 8.62 31.75 31.75m-31.75-31.75c20.48.67 31.36 11.54 31.75 31.75m0 0c-.47 42.95-1.57 84.58 0 152.78m0-152.78c.09 37.9-1.12 76.08 0 152.78m0 0c-.61 22.17-9.3 32.83-31.75 31.75m31.75-31.75c-.67 19.01-9.98 33.98-31.75 31.75m0 0c-18.69-.82-35.88-.98-63.5 0m63.5 0c-16.16-.27-32.85-.33-63.5 0m0 0c-21.1-1.75-32.06-8.85-31.75-31.75m31.75 31.75c-22.94-1.68-30.49-10.66-31.75-31.75m0 0c.94-54.08.72-107.85 0-152.78m0 152.78c1.48-44.93 2.07-90.6 0-152.78m0 0c1.85-19.38 12.09-30.37 31.75-31.75M10 55.374c.04-19.26 12.35-31.83 31.75-31.75"/></g><text x="58.482" y="15.478" fill="#1e1e1e" dominant-baseline="alphabetic" font-family="Comic Shanns, Segoe UI Emoji" font-size="17.69" style="white-space:pre" text-anchor="middle" transform="translate(15.018 65.43)">211.27.65.10</text><text x="58.482" y="37.59" fill="#1e1e1e" dominant-baseline="alphabetic" font-family="Comic Shanns, Segoe UI Emoji" font-size="17.69" style="white-space:pre" text-anchor="middle" transform="translate(15.018 65.43)">/18</text><text y="13.377" fill="#1e1e1e" dominant-baseline="alphabetic" font-family="Comic Shanns, Segoe UI Emoji" font-size="15.288" style="white-space:pre" transform="translate(39.23 36.37)">LNXSRV1</text><text y="13.7" fill="#1e1e1e" dominant-baseline="alphabetic" font-family="Comic Shanns, Segoe UI Emoji" font-size="15.657" style="white-space:pre" transform="translate(22.865 177.758)">LINUX DEBIAN</text><g stroke-linecap="round"><path fill="#a5d8ff" stroke-width="0" d="M614.059 10c22.76-2.83 45-1.77 69.67 0 23.24 2.53 34.47 9.69 32 32 3.32 45.96-.83 90.51 0 164.14 2.72 22.35-13.54 33.69-32 32-12.58.37-31.77.08-69.67 0-23.16 2.94-32.53-12.46-32-32 1.45-37.07 4.69-84.27 0-164.14 1.16-22.62 7.89-31.19 32-32"/><path fill="none" stroke="#fab005" stroke-width="2" d="M614.059 10c20.91 1.06 42.31.66 69.67 0m-69.67 0c22.77-.54 44.32 1.15 69.67 0m0 0c21.05.35 30.69 8.83 32 32m-32-32c19.16-.83 30.81 8.96 32 32m0 0c0 33.75-.63 69 0 164.14m0-164.14c1.17 45.86 1.73 91.49 0 164.14m0 0c1.7 22.12-9.52 33.78-32 32m32-32c.06 22.52-12.21 33.08-32 32m0 0c-26.18-.57-47.67 1.46-69.67 0m69.67 0c-25 .03-51.63-.3-69.67 0m0 0c-23.13-1.44-32.54-10.17-32-32m32 32c-22.83-1.8-32.74-9.05-32-32m0 0c-.81-37.55.26-73.47 0-164.14m0 164.14c1.07-53.29.04-107.3 0-164.14m0 0c-1.66-22.05 10.51-31.05 32-32m-32 32c-1.55-22.7 9.93-30.13 32-32"/></g><text x="51.287" y="39.652" fill="#1e1e1e" dominant-baseline="alphabetic" font-family="Comic Shanns, Segoe UI Emoji" font-size="18.66" style="white-space:pre" text-anchor="middle" transform="translate(597.607 30.774)">173.23.0.2</text><text x="51.287" y="62.976" fill="#1e1e1e" dominant-baseline="alphabetic" font-family="Comic Shanns, Segoe UI Emoji" font-size="18.66" style="white-space:pre" text-anchor="middle" transform="translate(597.607 30.774)">/26</text><text y="14.111" fill="#1e1e1e" dominant-baseline="alphabetic" font-family="Comic Shanns, Segoe UI Emoji" font-size="16.127" style="white-space:pre" transform="translate(620.355 22.766)">CLIENT1</text><text y="14.452" fill="#1e1e1e" dominant-baseline="alphabetic" font-family="Comic Shanns, Segoe UI Emoji" font-size="16.516" style="white-space:pre" transform="translate(594.95 175.98)">LINUX DEBIAN</text><path fill="none" stroke="#1971c2" stroke-dasharray="8 10" stroke-linecap="round" stroke-width="2.5" d="M136.104 118.265c21.84.19 109.22.95 131.07 1.15M389.474 117.276c31.85-.17 159.26-.83 191.11-.99"/><g stroke-linecap="round"><path fill="#96f2d7" stroke-width="0" d="M387.093 118.814c0 2.28-.13 4.57-.41 6.83-.27 2.27-.69 4.53-1.23 6.74a57 57 0 0 1-4.85 12.79 55 55 0 0 1-3.55 5.86 55 55 0 0 1-4.22 5.39 56 56 0 0 1-4.85 4.85c-1.7 1.51-3.51 2.93-5.39 4.22-1.87 1.3-3.84 2.49-5.86 3.55s-4.12 2-6.25 2.81a57 57 0 0 1-6.54 2.04c-2.21.54-4.47.96-6.74 1.23-2.26.28-4.55.41-6.83.41s-4.58-.13-6.84-.41c-2.26-.27-4.53-.69-6.74-1.23-2.21-.55-4.41-1.23-6.54-2.04s-4.23-1.75-6.25-2.81a57.5 57.5 0 0 1-11.25-7.77 55 55 0 0 1-4.84-4.85c-1.52-1.7-2.93-3.51-4.23-5.39a57 57 0 0 1-3.54-5.86 56 56 0 0 1-2.81-6.25c-.81-2.13-1.5-4.32-2.04-6.54-.55-2.21-.96-4.47-1.24-6.74-.27-2.26-.41-4.55-.41-6.83s.14-4.58.41-6.84a57 57 0 0 1 3.28-13.28c.8-2.13 1.75-4.23 2.81-6.25 1.06-2.01 2.25-3.98 3.54-5.86 1.3-1.87 2.71-3.68 4.23-5.39 1.51-1.71 3.13-3.33 4.84-4.84 1.71-1.52 3.52-2.93 5.39-4.23 1.88-1.29 3.85-2.48 5.86-3.54 2.02-1.06 4.12-2.01 6.25-2.81a57.064 57.064 0 0 1 13.28-3.28c2.26-.27 4.56-.41 6.84-.41s4.57.14 6.83.41c2.27.28 4.53.69 6.74 1.24 2.22.54 4.41 1.23 6.54 2.04 2.13.8 4.23 1.75 6.25 2.81s3.99 2.25 5.86 3.54c1.88 1.3 3.69 2.71 5.39 4.23 1.71 1.51 3.34 3.13 4.85 4.84s2.93 3.52 4.22 5.39c1.3 1.88 2.49 3.85 3.55 5.86 1.06 2.02 2 4.12 2.81 6.25s1.49 4.33 2.04 6.54c.54 2.21.96 4.48 1.23 6.74.28 2.26.41 4.56.41 6.84"/><path fill="none" stroke="#1971c2" stroke-width="2" d="M387.093 118.814c0 2.28-.13 4.57-.41 6.83-.27 2.27-.69 4.53-1.23 6.74a57 57 0 0 1-4.85 12.79 55 55 0 0 1-3.55 5.86 55 55 0 0 1-4.22 5.39 56 56 0 0 1-4.85 4.85c-1.7 1.51-3.51 2.93-5.39 4.22-1.87 1.3-3.84 2.49-5.86 3.55s-4.12 2-6.25 2.81a57 57 0 0 1-6.54 2.04c-2.21.54-4.47.96-6.74 1.23-2.26.28-4.55.41-6.83.41s-4.58-.13-6.84-.41c-2.26-.27-4.53-.69-6.74-1.23-2.21-.55-4.41-1.23-6.54-2.04s-4.23-1.75-6.25-2.81a57.5 57.5 0 0 1-11.25-7.77 55 55 0 0 1-4.84-4.85c-1.52-1.7-2.93-3.51-4.23-5.39a57 57 0 0 1-3.54-5.86 56 56 0 0 1-2.81-6.25c-.81-2.13-1.5-4.32-2.04-6.54-.55-2.21-.96-4.47-1.24-6.74-.27-2.26-.41-4.55-.41-6.83s.14-4.58.41-6.84a57 57 0 0 1 3.28-13.28c.8-2.13 1.75-4.23 2.81-6.25 1.06-2.01 2.25-3.98 3.54-5.86 1.3-1.87 2.71-3.68 4.23-5.39 1.51-1.71 3.13-3.33 4.84-4.84 1.71-1.52 3.52-2.93 5.39-4.23 1.88-1.29 3.85-2.48 5.86-3.54 2.02-1.06 4.12-2.01 6.25-2.81a57.064 57.064 0 0 1 13.28-3.28c2.26-.27 4.56-.41 6.84-.41s4.57.14 6.83.41c2.27.28 4.53.69 6.74 1.24 2.22.54 4.41 1.23 6.54 2.04 2.13.8 4.23 1.75 6.25 2.81s3.99 2.25 5.86 3.54c1.88 1.3 3.69 2.71 5.39 4.23 1.71 1.51 3.34 3.13 4.85 4.84s2.93 3.52 4.22 5.39c1.3 1.88 2.49 3.85 3.55 5.86 1.06 2.02 2 4.12 2.81 6.25s1.49 4.33 2.04 6.54c.54 2.21.96 4.48 1.23 6.74.28 2.26.41 4.56.41 6.84"/></g><text y="17.5" fill="#1e1e1e" dominant-baseline="alphabetic" font-family="Comic Shanns, Segoe UI Emoji" font-size="20" style="white-space:pre" transform="translate(299.289 189.776)">Router</text><g stroke-linecap="round"><path fill="none" stroke="#e03131" stroke-width="4" d="M330.17 63.105c.06 8.25.31 41.24.38 49.49m-.38-49.49c.06 8.25.31 41.24.38 49.49M321.91 89.405c2.23 6 4.47 11.99 8.64 23.19m-8.64-23.19c2.92 7.85 5.85 15.7 8.64 23.19M338.83 89.275c-2.14 6.03-4.28 12.06-8.28 23.32m8.28-23.32c-2.8 7.9-5.61 15.79-8.28 23.32"/></g><g stroke-linecap="round"><path fill="none" stroke="#e03131" stroke-width="4" d="M330.548 174.089c-.06-7.86-.31-39.3-.38-47.16m.38 47.16c-.06-7.86-.31-39.3-.38-47.16M338.408 149.019l-8.24-22.09m8.24 22.09c-2.14-5.75-4.29-11.51-8.24-22.09M322.278 149.149c2.86-8.04 5.71-16.07 7.89-22.22m-7.89 22.22c2.06-5.79 4.11-11.57 7.89-22.22"/></g><g stroke-linecap="round"><path fill="none" stroke="#e03131" stroke-width="4" d="M274.709 117.118c6.85.13 34.27.63 41.12.75m-41.12-.75c6.85.13 34.27.63 41.12.75M296.379 124.548c6.8-2.33 13.6-4.67 19.45-6.68m-19.45 6.68c7.51-2.57 15.01-5.15 19.45-6.68M296.639 110.488l19.19 7.38m-19.19-7.38c7.41 2.85 14.81 5.7 19.19 7.38"/></g><g stroke-linecap="round"><path fill="none" stroke="#e03131" stroke-width="4" d="M386.198 116.71c-6.63.07-33.17.34-39.8.41m39.8-.41c-6.63.07-33.17.34-39.8.41"/><path fill="none" stroke="#e03131" stroke-width="4" d="M365.028 110.12c-7.42 2.79-14.84 5.57-18.63 7m18.63-7c-4.28 1.61-8.56 3.21-18.63 7M365.168 123.73c-7.48-2.63-14.96-5.27-18.77-6.61m18.77 6.61c-4.31-1.51-8.62-3.03-18.77-6.61"/></g></svg>