<svg version="1.1" xmlns="http://www.w3.org/2000/svg" viewBox="0 0 759.3903110162937 291.38336851749085" width="759.3903110162937" height="291.38336851749085">
  <!-- svg-source:excalidraw -->
  
  <defs>
    <style class="style-fonts">
      @font-face { font-family: Comic Shanns; src: url(/fonts/ComicShanns.woff); }
    </style>
    
  </defs>
  <rect x="0" y="0" width="759.3903110162937" height="291.38336851749085" fill="#ffffff"></rect><g stroke-linecap="round" transform="translate(10 10) rotate(0 75.99998474121094 134.8000183105469)"><path d="M32 0 C60.1 3.64, 91.98 -1.49, 120 0 C139.32 3.54, 153.93 9.94, 152 32 C150.97 101.73, 150.47 168.85, 152 237.6 C149.7 259.43, 140.52 267.94, 120 269.6 C86.33 268.38, 55.26 270.23, 32 269.6 C7.43 269.58, -2.94 258.02, 0 237.6 C-1.96 171.25, -4.45 103.4, 0 32 C2.07 10.51, 8.22 3.16, 32 0" stroke="none" stroke-width="0" fill="#96f2d7"></path><path d="M32 0 C58.11 0.24, 83.4 -0.67, 120 0 M32 0 C50.41 0.87, 68.95 0.12, 120 0 M120 0 C142.3 -0.98, 153.01 10.53, 152 32 M120 0 C139.4 -1.99, 153.78 11.1, 152 32 M152 32 C150.83 80.07, 151.81 124.65, 152 237.6 M152 32 C150.11 95.81, 151.47 158.57, 152 237.6 M152 237.6 C151.87 258.29, 140.2 271.49, 120 269.6 M152 237.6 C151.63 257.3, 140.12 271.06, 120 269.6 M120 269.6 C89.93 267.53, 63.09 270.08, 32 269.6 M120 269.6 C94.03 269.86, 68.67 268.92, 32 269.6 M32 269.6 C12.14 269.65, -0.39 259.03, 0 237.6 M32 269.6 C12.42 268.88, -1.69 258.68, 0 237.6 M0 237.6 C-1.6 183.71, -0.75 126.07, 0 32 M0 237.6 C-0.8 157.43, -1.35 78.57, 0 32 M0 32 C1.08 12.35, 10.58 -0.35, 32 0 M0 32 C1.69 10.5, 11.16 0.62, 32 0" stroke="#ffd43b" stroke-width="2" fill="none"></path></g><g transform="translate(19.999984741210938 32.300018310546875) rotate(0 66 112.5)"><text x="66" y="17.5" font-family="Comic Shanns, Segoe UI Emoji" font-size="20px" fill="#1e1e1e" text-anchor="middle" style="white-space: pre;" direction="ltr" dominant-baseline="alphabetic">LNXSRV1</text><text x="66" y="42.5" font-family="Comic Shanns, Segoe UI Emoji" font-size="20px" fill="#1e1e1e" text-anchor="middle" style="white-space: pre;" direction="ltr" dominant-baseline="alphabetic"></text><text x="66" y="67.5" font-family="Comic Shanns, Segoe UI Emoji" font-size="20px" fill="#1e1e1e" text-anchor="middle" style="white-space: pre;" direction="ltr" dominant-baseline="alphabetic">211.27.65.10</text><text x="66" y="92.5" font-family="Comic Shanns, Segoe UI Emoji" font-size="20px" fill="#1e1e1e" text-anchor="middle" style="white-space: pre;" direction="ltr" dominant-baseline="alphabetic">/18</text><text x="66" y="117.5" font-family="Comic Shanns, Segoe UI Emoji" font-size="20px" fill="#1e1e1e" text-anchor="middle" style="white-space: pre;" direction="ltr" dominant-baseline="alphabetic"></text><text x="66" y="142.5" font-family="Comic Shanns, Segoe UI Emoji" font-size="20px" fill="#1e1e1e" text-anchor="middle" style="white-space: pre;" direction="ltr" dominant-baseline="alphabetic"></text><text x="66" y="167.5" font-family="Comic Shanns, Segoe UI Emoji" font-size="20px" fill="#1e1e1e" text-anchor="middle" style="white-space: pre;" direction="ltr" dominant-baseline="alphabetic"></text><text x="66" y="192.5" font-family="Comic Shanns, Segoe UI Emoji" font-size="20px" fill="#1e1e1e" text-anchor="middle" style="white-space: pre;" direction="ltr" dominant-baseline="alphabetic"></text><text x="66" y="217.5" font-family="Comic Shanns, Segoe UI Emoji" font-size="20px" fill="#1e1e1e" text-anchor="middle" style="white-space: pre;" direction="ltr" dominant-baseline="alphabetic">LINUX DEBIAN</text></g><g stroke-linecap="round" transform="translate(597.3903415338717 11.783331896397101) rotate(0 75.999984741211 134.80001831054688)"><path d="M32 0 C54.35 0.37, 80.08 0.78, 120 0 C138.78 0.15, 148.64 13.76, 152 32 C150.64 81.6, 153.99 132.92, 152 237.6 C150.27 259.39, 144.1 272.41, 120 269.6 C104 269.39, 79.82 272.04, 32 269.6 C8.98 272.98, 2.15 260.76, 0 237.6 C1.11 167.27, -0.33 90.4, 0 32 C0.51 12.13, 10.34 2.31, 32 0" stroke="none" stroke-width="0" fill="#ffec99"></path><path d="M32 0 C56.33 0.09, 75.08 1.4, 120 0 M32 0 C63.53 0.71, 93.9 0.58, 120 0 M120 0 C140.77 0.23, 151.43 8.84, 152 32 M120 0 C143.35 1.82, 153.69 9.86, 152 32 M152 32 C154.22 112.8, 152.84 190.44, 152 237.6 M152 32 C152.01 87.96, 153.31 141.52, 152 237.6 M152 237.6 C152.52 260.63, 142.36 268.52, 120 269.6 M152 237.6 C150.2 259.85, 139.35 269, 120 269.6 M120 269.6 C97.57 269.29, 76.25 272.26, 32 269.6 M120 269.6 C89.29 270.3, 60.42 268.67, 32 269.6 M32 269.6 C12.2 271.11, 1.37 258.42, 0 237.6 M32 269.6 C12.3 270.93, 2.29 257.42, 0 237.6 M0 237.6 C0.98 183.04, 0.96 127.88, 0 32 M0 237.6 C0.73 156.6, -0.02 74.15, 0 32 M0 32 C1.73 11.96, 9.71 -0.29, 32 0 M0 32 C-2.23 8.68, 10.87 -0.19, 32 0" stroke="#1971c2" stroke-width="2" fill="none"></path></g><g transform="translate(612.8903262750827 34.083350206943976) rotate(0 60.50000000000006 112.5)"><text x="60.5" y="17.5" font-family="Comic Shanns, Segoe UI Emoji" font-size="20px" fill="#1e1e1e" text-anchor="middle" style="white-space: pre;" direction="ltr" dominant-baseline="alphabetic">CLIENT1</text><text x="60.5" y="42.5" font-family="Comic Shanns, Segoe UI Emoji" font-size="20px" fill="#1e1e1e" text-anchor="middle" style="white-space: pre;" direction="ltr" dominant-baseline="alphabetic"></text><text x="60.5" y="67.5" font-family="Comic Shanns, Segoe UI Emoji" font-size="20px" fill="#1e1e1e" text-anchor="middle" style="white-space: pre;" direction="ltr" dominant-baseline="alphabetic">173.23.0.19</text><text x="60.5" y="92.5" font-family="Comic Shanns, Segoe UI Emoji" font-size="20px" fill="#1e1e1e" text-anchor="middle" style="white-space: pre;" direction="ltr" dominant-baseline="alphabetic">/26</text><text x="60.5" y="117.5" font-family="Comic Shanns, Segoe UI Emoji" font-size="20px" fill="#1e1e1e" text-anchor="middle" style="white-space: pre;" direction="ltr" dominant-baseline="alphabetic"></text><text x="60.5" y="142.5" font-family="Comic Shanns, Segoe UI Emoji" font-size="20px" fill="#1e1e1e" text-anchor="middle" style="white-space: pre;" direction="ltr" dominant-baseline="alphabetic"></text><text x="60.5" y="167.5" font-family="Comic Shanns, Segoe UI Emoji" font-size="20px" fill="#1e1e1e" text-anchor="middle" style="white-space: pre;" direction="ltr" dominant-baseline="alphabetic"></text><text x="60.5" y="192.5" font-family="Comic Shanns, Segoe UI Emoji" font-size="20px" fill="#1e1e1e" text-anchor="middle" style="white-space: pre;" direction="ltr" dominant-baseline="alphabetic"></text><text x="60.5" y="217.5" font-family="Comic Shanns, Segoe UI Emoji" font-size="20px" fill="#1e1e1e" text-anchor="middle" style="white-space: pre;" direction="ltr" dominant-baseline="alphabetic">WINDOWS 10</text></g><g stroke-linecap="round" transform="translate(299.27723661678624 89.96463545555605) rotate(0 56.618284160685505 56.618284160685505)"><path d="M113.24 56.62 C113.24 58.89, 113.1 61.18, 112.82 63.44 C112.55 65.7, 112.14 67.96, 111.59 70.17 C111.05 72.38, 110.36 74.57, 109.56 76.7 C108.75 78.82, 107.81 80.92, 106.75 82.93 C105.69 84.94, 104.51 86.91, 103.21 88.78 C101.92 90.65, 100.51 92.46, 99 94.16 C97.49 95.87, 95.87 97.49, 94.16 99 C92.46 100.51, 90.65 101.92, 88.78 103.21 C86.91 104.51, 84.94 105.69, 82.93 106.75 C80.92 107.81, 78.82 108.75, 76.7 109.56 C74.57 110.36, 72.38 111.05, 70.17 111.59 C67.96 112.14, 65.7 112.55, 63.44 112.82 C61.18 113.1, 58.89 113.24, 56.62 113.24 C54.34 113.24, 52.05 113.1, 49.79 112.82 C47.54 112.55, 45.28 112.14, 43.07 111.59 C40.86 111.05, 38.67 110.36, 36.54 109.56 C34.41 108.75, 32.32 107.81, 30.31 106.75 C28.29 105.69, 26.33 104.51, 24.46 103.21 C22.58 101.92, 20.78 100.51, 19.07 99 C17.37 97.49, 15.75 95.87, 14.24 94.16 C12.73 92.46, 11.31 90.65, 10.02 88.78 C8.73 86.91, 7.54 84.94, 6.49 82.93 C5.43 80.92, 4.49 78.82, 3.68 76.7 C2.87 74.57, 2.19 72.38, 1.65 70.17 C1.1 67.96, 0.69 65.7, 0.41 63.44 C0.14 61.18, 0 58.89, 0 56.62 C0 54.34, 0.14 52.05, 0.41 49.79 C0.69 47.54, 1.1 45.28, 1.65 43.07 C2.19 40.86, 2.87 38.67, 3.68 36.54 C4.49 34.41, 5.43 32.32, 6.49 30.31 C7.54 28.29, 8.73 26.33, 10.02 24.46 C11.31 22.58, 12.73 20.78, 14.24 19.07 C15.75 17.37, 17.37 15.75, 19.07 14.24 C20.78 12.73, 22.58 11.31, 24.46 10.02 C26.33 8.73, 28.29 7.54, 30.31 6.49 C32.32 5.43, 34.41 4.49, 36.54 3.68 C38.67 2.87, 40.86 2.19, 43.07 1.65 C45.28 1.1, 47.54 0.69, 49.79 0.41 C52.05 0.14, 54.34 0, 56.62 0 C58.89 0, 61.18 0.14, 63.44 0.41 C65.7 0.69, 67.96 1.1, 70.17 1.65 C72.38 2.19, 74.57 2.87, 76.7 3.68 C78.82 4.49, 80.92 5.43, 82.93 6.49 C84.94 7.54, 86.91 8.73, 88.78 10.02 C90.65 11.31, 92.46 12.73, 94.16 14.24 C95.87 15.75, 97.49 17.37, 99 19.07 C100.51 20.78, 101.92 22.58, 103.21 24.46 C104.51 26.33, 105.69 28.29, 106.75 30.31 C107.81 32.32, 108.75 34.41, 109.56 36.54 C110.36 38.67, 111.05 40.86, 111.59 43.07 C112.14 45.28, 112.55 47.54, 112.82 49.79 C113.1 52.05, 113.24 54.34, 113.24 56.62" stroke="none" stroke-width="0" fill="#a5d8ff"></path><path d="M113.24 56.62 C113.24 58.89, 113.1 61.18, 112.82 63.44 C112.55 65.7, 112.14 67.96, 111.59 70.17 C111.05 72.38, 110.36 74.57, 109.56 76.7 C108.75 78.82, 107.81 80.92, 106.75 82.93 C105.69 84.94, 104.51 86.91, 103.21 88.78 C101.92 90.65, 100.51 92.46, 99 94.16 C97.49 95.87, 95.87 97.49, 94.16 99 C92.46 100.51, 90.65 101.92, 88.78 103.21 C86.91 104.51, 84.94 105.69, 82.93 106.75 C80.92 107.81, 78.82 108.75, 76.7 109.56 C74.57 110.36, 72.38 111.05, 70.17 111.59 C67.96 112.14, 65.7 112.55, 63.44 112.82 C61.18 113.1, 58.89 113.24, 56.62 113.24 C54.34 113.24, 52.05 113.1, 49.79 112.82 C47.54 112.55, 45.28 112.14, 43.07 111.59 C40.86 111.05, 38.67 110.36, 36.54 109.56 C34.41 108.75, 32.32 107.81, 30.31 106.75 C28.29 105.69, 26.33 104.51, 24.46 103.21 C22.58 101.92, 20.78 100.51, 19.07 99 C17.37 97.49, 15.75 95.87, 14.24 94.16 C12.73 92.46, 11.31 90.65, 10.02 88.78 C8.73 86.91, 7.54 84.94, 6.49 82.93 C5.43 80.92, 4.49 78.82, 3.68 76.7 C2.87 74.57, 2.19 72.38, 1.65 70.17 C1.1 67.96, 0.69 65.7, 0.41 63.44 C0.14 61.18, 0 58.89, 0 56.62 C0 54.34, 0.14 52.05, 0.41 49.79 C0.69 47.54, 1.1 45.28, 1.65 43.07 C2.19 40.86, 2.87 38.67, 3.68 36.54 C4.49 34.41, 5.43 32.32, 6.49 30.31 C7.54 28.29, 8.73 26.33, 10.02 24.46 C11.31 22.58, 12.73 20.78, 14.24 19.07 C15.75 17.37, 17.37 15.75, 19.07 14.24 C20.78 12.73, 22.58 11.31, 24.46 10.02 C26.33 8.73, 28.29 7.54, 30.31 6.49 C32.32 5.43, 34.41 4.49, 36.54 3.68 C38.67 2.87, 40.86 2.19, 43.07 1.65 C45.28 1.1, 47.54 0.69, 49.79 0.41 C52.05 0.14, 54.34 0, 56.62 0 C58.89 0, 61.18 0.14, 63.44 0.41 C65.7 0.69, 67.96 1.1, 70.17 1.65 C72.38 2.19, 74.57 2.87, 76.7 3.68 C78.82 4.49, 80.92 5.43, 82.93 6.49 C84.94 7.54, 86.91 8.73, 88.78 10.02 C90.65 11.31, 92.46 12.73, 94.16 14.24 C95.87 15.75, 97.49 17.37, 99 19.07 C100.51 20.78, 101.92 22.58, 103.21 24.46 C104.51 26.33, 105.69 28.29, 106.75 30.31 C107.81 32.32, 108.75 34.41, 109.56 36.54 C110.36 38.67, 111.05 40.86, 111.59 43.07 C112.14 45.28, 112.55 47.54, 112.82 49.79 C113.1 52.05, 113.24 54.34, 113.24 56.62" stroke="#f08c00" stroke-width="2" fill="none"></path></g><g stroke-linecap="round"><g transform="translate(298.40662791418936 142.72366230743887) rotate(0 22.366790648936274 1.192306318293845)"><path d="M0 0 C10.68 0.57, 21.35 1.14, 44.73 2.38 M0 0 C12.1 0.65, 24.21 1.29, 44.73 2.38" stroke="#2f9e44" stroke-width="4" fill="none"></path></g><g transform="translate(298.40662791418936 142.72366230743887) rotate(0 22.366790648936274 1.192306318293845)"><path d="M23.31 8.91 C28.42 7.36, 33.53 5.8, 44.73 2.38 M23.31 8.91 C29.1 7.15, 34.9 5.38, 44.73 2.38" stroke="#2f9e44" stroke-width="4" fill="none"></path></g><g transform="translate(298.40662791418936 142.72366230743887) rotate(0 22.366790648936274 1.192306318293845)"><path d="M24.12 -6.39 C29.04 -4.29, 33.96 -2.2, 44.73 2.38 M24.12 -6.39 C29.7 -4.01, 35.28 -1.64, 44.73 2.38" stroke="#2f9e44" stroke-width="4" fill="none"></path></g></g><mask></mask><g stroke-linecap="round"><g transform="translate(356.7030247816841 204.1955450285996) rotate(0 0.3332634592966883 -25.417129846025915)"><path d="M0 0 C0.19 -14.6, 0.38 -29.21, 0.67 -50.83 M0 0 C0.24 -17.93, 0.47 -35.87, 0.67 -50.83" stroke="#2f9e44" stroke-width="4" fill="none"></path></g><g transform="translate(356.7030247816841 204.1955450285996) rotate(0 0.3332634592966883 -25.417129846025915)"><path d="M8.91 -27.23 C6.54 -34.01, 4.17 -40.79, 0.67 -50.83 M8.91 -27.23 C6 -35.56, 3.09 -43.88, 0.67 -50.83" stroke="#2f9e44" stroke-width="4" fill="none"></path></g><g transform="translate(356.7030247816841 204.1955450285996) rotate(0 0.3332634592966883 -25.417129846025915)"><path d="M-8.19 -27.46 C-5.65 -34.17, -3.1 -40.89, 0.67 -50.83 M-8.19 -27.46 C-5.07 -35.7, -1.94 -43.95, 0.67 -50.83" stroke="#2f9e44" stroke-width="4" fill="none"></path></g></g><mask></mask><g stroke-linecap="round"><g transform="translate(413.488180475132 144.8647174829038) rotate(0 -22.36758607702916 -0.020512305976552625)"><path d="M0 0 C-12.68 -0.01, -25.36 -0.02, -44.74 -0.04 M0 0 C-11.52 -0.01, -23.04 -0.02, -44.74 -0.04" stroke="#2f9e44" stroke-width="4" fill="none"></path></g><g transform="translate(413.488180475132 144.8647174829038) rotate(0 -22.36758607702916 -0.020512305976552625)"><path d="M-23.71 -7.67 C-29.67 -5.51, -35.63 -3.35, -44.74 -0.04 M-23.71 -7.67 C-29.12 -5.71, -34.54 -3.74, -44.74 -0.04" stroke="#2f9e44" stroke-width="4" fill="none"></path></g><g transform="translate(413.488180475132 144.8647174829038) rotate(0 -22.36758607702916 -0.020512305976552625)"><path d="M-23.72 7.63 C-29.68 5.45, -35.63 3.28, -44.74 -0.04 M-23.72 7.63 C-29.13 5.65, -34.55 3.68, -44.74 -0.04" stroke="#2f9e44" stroke-width="4" fill="none"></path></g></g><mask></mask><g stroke-linecap="round"><g transform="translate(356.76242868719385 88.97115744654599) rotate(0 -0.4079045322578736 24.938112520465438)"><path d="M0 0 C-0.27 16.78, -0.55 33.56, -0.82 49.88 M0 0 C-0.17 10.14, -0.33 20.28, -0.82 49.88" stroke="#2f9e44" stroke-width="4" fill="none"></path></g><g transform="translate(356.76242868719385 88.97115744654599) rotate(0 -0.4079045322578736 24.938112520465438)"><path d="M-8.96 26.3 C-6.22 34.23, -3.48 42.17, -0.82 49.88 M-8.96 26.3 C-7.31 31.1, -5.65 35.89, -0.82 49.88" stroke="#2f9e44" stroke-width="4" fill="none"></path></g><g transform="translate(356.76242868719385 88.97115744654599) rotate(0 -0.4079045322578736 24.938112520465438)"><path d="M8.1 26.58 C5.1 34.42, 2.1 42.26, -0.82 49.88 M8.1 26.58 C6.28 31.32, 4.47 36.06, -0.82 49.88" stroke="#2f9e44" stroke-width="4" fill="none"></path></g></g><mask></mask><g stroke-linecap="round"><g transform="translate(163.13747820703128 147.8606738378653) rotate(0 67.63457508544528 0.3636281642382926)"><path d="M0 0 C52.15 0.28, 104.3 0.56, 135.27 0.73" stroke="#1e1e1e" stroke-width="4.5" fill="none" stroke-dasharray="8 12"></path></g></g><mask></mask><g stroke-linecap="round"><g transform="translate(413.4881801152251 147.13341773826625) rotate(0 91.08851876362468 0.363628164238321)"><path d="M0 0 C51.13 0.2, 102.25 0.41, 182.18 0.73" stroke="#1e1e1e" stroke-width="4.5" fill="none" stroke-dasharray="8 12"></path></g></g><mask></mask><g transform="translate(309.4482601579091 216.24965116014363) rotate(0 46.199981689453125 17.5)"><text x="0" y="24.5" font-family="Comic Shanns, Segoe UI Emoji" font-size="28px" fill="#1e1e1e" text-anchor="start" style="white-space: pre;" direction="ltr" dominant-baseline="alphabetic">Router</text></g></svg>